<svg id="Layer_1" data-name="Layer 1" xmlns="http://www.w3.org/2000/svg" xmlns:xlink="http://www.w3.org/1999/xlink" viewBox="0 0 253.82 566.41"><defs><style>.cls-1{fill:#1a1a1a;}.cls-2{fill:url(#linear-gradient);}.cls-3{fill:url(#linear-gradient-2);}.cls-4{fill:url(#linear-gradient-3);}.cls-5{fill:url(#linear-gradient-4);}.cls-6{fill:url(#linear-gradient-5);}.cls-7{fill:url(#linear-gradient-6);}</style><linearGradient id="linear-gradient" x1="955.77" y1="750.01" x2="847.46" y2="840.8" gradientUnits="userSpaceOnUse"><stop offset="0.29"/><stop offset="0.52" stop-color="#621b32"/><stop offset="0.75" stop-color="#c13663"/><stop offset="0.85" stop-color="#e74176"/></linearGradient><linearGradient id="linear-gradient-2" x1="1191.66" y1="881.53" x2="1276.72" y2="881.53" gradientTransform="matrix(0.85, 0.53, -0.53, 0.85, 399.03, -1064.56)" gradientUnits="userSpaceOnUse"><stop offset="0" stop-color="#fff"/><stop offset="1" stop-color="#e74176"/></linearGradient><linearGradient id="linear-gradient-3" x1="1189.01" y1="916.15" x2="1301.87" y2="916.15" xlink:href="#linear-gradient-2"/><linearGradient id="linear-gradient-4" x1="1191.29" y1="958.61" x2="1315.32" y2="834.59" xlink:href="#linear-gradient-2"/><linearGradient id="linear-gradient-5" x1="1203.1" y1="942.12" x2="1297.21" y2="772.25" xlink:href="#linear-gradient-2"/><linearGradient id="linear-gradient-6" x1="1205.12" y1="943.25" x2="1299.24" y2="773.37" xlink:href="#linear-gradient-2"/></defs><path class="cls-1" d="M985.83,392.61c-.07,15.13-.07,36.59-.07,69.1V582.5c0,81.54,0,112.74-14.49,148.48-1.25,3.09-2.67,6.15-4.26,9.22-3.7.29-7.45.44-11.27.44A142.81,142.81,0,0,1,933.57,739c7.81-27.08,11.61-66.31,11.61-131.81V461.71c0-33.71,0-55.54-.07-70.75a131,131,0,0,1,18-1.2A87.7,87.7,0,0,1,985.83,392.61Z" transform="translate(-835.18 -256.79)"/><path class="cls-2" d="M929.45,755.72c-7.47,18.5-17.65,30.62-30.64,43.82-4.35,4.34-11.11,10.14-16.91,13.52-4.35,2.9-6.76,4.35-6.76,7.25,0,1.93,1.93,2.9,3.38,2.9a7,7,0,0,0,3.38-1c4.83-2.41,12.56-7.73,18.84-12.08,27.47-19,46.12-35.83,58.31-52.54l-1.58,0A197.59,197.59,0,0,1,929.45,755.72Z" transform="translate(-835.18 -256.79)"/><path class="cls-1" d="M958.66,406.55a137.83,137.83,0,0,0-18,1.15c-40.9,5.41-65.88,29.35-65.88,58.94,0,31.9,29.4,47.77,66,61.8v33c-44.09-16.62-83.26-37.78-83.26-89.19,0-39,30.39-68.69,83.1-74.56a176.29,176.29,0,0,1,19.79-1.09,206.23,206.23,0,0,1,21.09,1.07C992.71,398.84,965,406.55,958.66,406.55Z" transform="translate(-835.18 -256.79)"/><path class="cls-1" d="M1089,645.61c0,71.63-59.15,109.21-125.52,109.8H961.9a197.49,197.49,0,0,1-28-1.92C799,734.24,809.62,575.54,921.7,568.23,847.32,589,830.28,725.4,938,741.71a148.09,148.09,0,0,0,22.17,1.61c3.82,0,7.57-.14,11.27-.42,58.86-4.4,99.83-42.87,99.83-85.18,0-46.66-37.89-65.74-81.08-81.68V543.29C1040.2,562,1089,586,1089,645.61Z" transform="translate(-835.18 -256.79)"/><path d="M831,339.43" transform="translate(-835.18 -256.79)"/><path d="M983.34,397.45" transform="translate(-835.18 -256.79)"/><path class="cls-3" d="M905.63,387s5.51-31,60.68-54.36c46.14-19.52,52.56-14.16,71.62-28.13s20.53-18.63,24.7-26.5c0,0-5.25,37.81-34.82,56.42-42.2,26.55-100.64,34.57-107.24,43S905.63,387,905.63,387Z" transform="translate(-835.18 -256.79)"/><path class="cls-4" d="M867.74,445s18.45-54.68,68.9-77.8c46.41-21.28,83.83-22,101.1-39.85S1062.63,278,1062.63,278s4.13,42.9-5.29,64.91-22.87,50.57-58,54.6-74.31,7.69-90.88,17.64S867.74,445,867.74,445Z" transform="translate(-835.18 -256.79)"/><path class="cls-1" d="M1065.17,324c2.24-15.85,1.72-32.39,3.67-47.27.28-1.83,0-19.93,0-19.93s-8.78,16.7-10.92,19.65A119.69,119.69,0,0,1,1044,292.38a93.68,93.68,0,0,1-29.79,19.74c-9.3,3.64-18.17,5.07-23.62,7.11-20.46,6.54-35.52,14.7-48.37,24.11-12.6,9.59-23.93,20.2-32.43,35.81,10.35-14.35,22.44-23.23,35.3-31.62a203.48,203.48,0,0,1,47.58-21.7c5.27-2,13.56-3.18,24.12-7.25a100.41,100.41,0,0,0,32-21.17,125.07,125.07,0,0,0,12.27-13.68c-1.11,13.39-1,26.54-2.84,39.35-2,15.27-6.21,29.9-13.89,41.05a61,61,0,0,1-28.06,22.26c-19.92,7.51-34.73,6.47-34.68,7.09a286.17,286.17,0,0,0-36.43,6c-19.68,4.9-47.52,13.08-69.22,33.76q1.63-3.16,3.44-6.21A145.8,145.8,0,0,1,907,393.34c20.24-18.7,41.7-26.37,52.53-29,20.52-5.59,36.27-11.5,50.46-18.66,13.58-7.55,28.06-15.1,36.81-30.83-10.51,14.29-25.17,19.81-39,26.22-14.32,5.94-29.88,11.13-50.12,16.58-11.16,2.61-34.33,10.93-55.4,30.49a152.29,152.29,0,0,0-29,35.35c-4.09,6.91-8.65,15.82-11.07,23.79a52.87,52.87,0,0,0-1.6,6.06l-.36,1.54v0c-.12,0-.12,0,0,0l-.07.34L858.59,470c-2.13.07,9.87-12.41,8.41-12.81l0-.07.18-.41c1.57.38,2.2.53,0,0l0-.11c.33-.78.73-1.59,1.16-2.39a73.59,73.59,0,0,1,7.29-10.62C896,420.67,926,411.36,946.79,406.27a278.47,278.47,0,0,1,35.57-5.9c-.3-.66,14.68.61,36.56-7.55a67.9,67.9,0,0,0,31.19-24.77C1058.67,355.64,1063.12,339.84,1065.17,324Z" transform="translate(-835.18 -256.79)"/><path class="cls-1" d="M937.77,390.16,969.05,397l-16,3.35S947.69,392.12,937.77,390.16Z" transform="translate(-835.18 -256.79)"/><path class="cls-1" d="M973.07,375.79l53.27,10.62-10.4,3.32S983,377.74,973.07,375.79Z" transform="translate(-835.18 -256.79)"/><path class="cls-1" d="M1020.74,360l35.13-6.61-6.95,6.18S1027.29,358.77,1020.74,360Z" transform="translate(-835.18 -256.79)"/><path class="cls-1" d="M1008,331.64l23.82-24-8.84,2.85S1012.48,327.17,1008,331.64Z" transform="translate(-835.18 -256.79)"/><path class="cls-1" d="M952.67,350.33l23.8-24-8.83,2.85S957.12,345.87,952.67,350.33Z" transform="translate(-835.18 -256.79)"/><path class="cls-5" d="M911.58,397.65s12.13-19.64,60.81-32c45.88-11.67,71-36.16,76.61-45.23s3.13,9.59-.76,20.4-16.31,12.89-28.84,16.28-13.15,4.41-13.15,4.41,26.75,4,28.89,3.91-13.2,7.86-21.24,8.46-27.91.16-34.5-.43c-7.91-.71-16.87,1.41-16.87,1.41,20.42,6.35,25.27,8.64,25.27,8.64C976.78,387.81,948.8,376.8,911.58,397.65Z" transform="translate(-835.18 -256.79)"/><path class="cls-6" d="M977.24,335.23s24.55-7.1,31.19-10c0,0-4.66,7.56-11.92,11.42-23.92,12.75-35.11,15.19-37.75,15Z" transform="translate(-835.18 -256.79)"/><path class="cls-7" d="M1025.89,317.27l-9.86,9.21s15.59-5,29.93-22.56S1039.16,311.54,1025.89,317.27Z" transform="translate(-835.18 -256.79)"/></svg>