<svg id="Layer_1" data-name="Layer 1" xmlns="http://www.w3.org/2000/svg" viewBox="0 0 229.31 513.72"><path d="M997,410c.19,8.66.33,19.41.4,28.25q.17,18.36,0,36.23V581c0,71.93,0,99.45-13.09,131q-1.69,4.1-3.85,8.14-5,.39-10.18.39a131,131,0,0,1-20-1.48c7-23.88,10.49-58.5,10.49-116.28V474.48c0-29.74.33-47.06.26-60.48,4.93-.58,10-2.92,15.92-3C984.3,410.9,991,409.32,997,410Z" transform="translate(-861.36 -284.42)"/><path d="M944.52,737.17c-6.75,16.72-15.94,27.67-27.68,39.59A85.73,85.73,0,0,1,901.57,789c-3.93,2.62-6.11,3.93-6.11,6.55,0,1.74,1.74,2.61,3,2.61a6.31,6.31,0,0,0,3.06-.87c4.36-2.18,11.34-7,17-10.91,24.81-17.15,41.66-32.37,52.67-47.47h-1.42A178.52,178.52,0,0,1,944.52,737.17Z" transform="translate(-861.36 -284.42)"/><path d="M1090.67,635.7c0,64.71-53.44,98.66-113.4,99.19h-1.43a178.28,178.28,0,0,1-25.31-1.73c-121.85-17.4-112.26-160.78-11-167.38-67.19,18.72-82.59,142,14.73,156.73a133.76,133.76,0,0,0,20,1.45q5.18,0,10.18-.38c53.18-4,90.19-38.73,90.19-77,0-42.16-34.23-59.4-73.25-73.8V543.26C1046.58,560.15,1090.67,581.82,1090.67,635.7Z" transform="translate(-861.36 -284.42)"/><path d="M857.58,359.08" transform="translate(-861.36 -284.42)"/><path d="M995.21,411.49" transform="translate(-861.36 -284.42)"/><path d="M956.74,529.84v29.82c-39.83-15-75.22-34.13-75.22-80.58a60.84,60.84,0,0,1,5.17-24.94c-.28.81-.56,1.62-.8,2.41a50.1,50.1,0,0,0-1.44,5.48l-.32,1.39h0c-.11,0-.11,0,0,0l-.07.31L882.63,476c-.39.66-.49,1.06-.12,1l.12-1c1.65-2.8,8.54-10.22,7.47-10.51l0-.07.15-.37.62.15.25.06.11,0,.09,0-.18,0-.88-.23,0-.1c.3-.7.66-1.44,1-2.15a66.2,66.2,0,0,1,6.59-9.6,83.28,83.28,0,0,1,12.57-11.49A46,46,0,0,0,897.15,474C897.15,502.83,923.71,517.16,956.74,529.84Z" transform="translate(-861.36 -284.42)"/><path d="M1072.4,284.42s-7.93,15.09-9.86,17.75A109.26,109.26,0,0,1,1050,316.58a84.78,84.78,0,0,1-26.92,17.83c-8.41,3.29-16.42,4.58-21.34,6.42-18.49,5.91-32.09,13.28-43.7,21.78-11.38,8.67-21.62,18.26-29.3,32.36,9.35-13,20.28-21,31.89-28.57,4.72-2.93,9.67-5.74,15-8.41,2.92-4.33,5.34-8.18,5.34-8.18l8-2.57-8.25,8.32a202.25,202.25,0,0,1,22.88-8.77c4.76-1.78,12.25-2.87,21.79-6.55q.58-.23,1.17-.48c2.5-3.75,4.45-6.84,4.45-6.84l8-2.56-6.68,6.72a94.54,94.54,0,0,0,22-16,112.52,112.52,0,0,0,11.09-12.36c-1,12.1-.92,24-2.57,35.55-1.3,10.13-3.72,19.94-7.66,28.44l5.51-1-6.29,5.58-1.51-.05c-.82,1.44-1.68,2.83-2.6,4.16a54.42,54.42,0,0,1-22.52,18.88l6.24,1.24-9.4,3-4.09-1.47c-15.72,5.09-27,4.35-26.91,4.86,0,.07-6,.46-16,2.12l3.93.86q6.21.23,12,.82c3.3.34,2.86,1.31.58,2.46.14,0,.22,0,.21,0-.27-.59,13.27.56,33-6.82a61.32,61.32,0,0,0,28.18-22.37c7.73-11.22,11.76-25.49,13.61-39.81,2-14.32,1.55-29.26,3.32-42.7C1072.71,300.78,1072.4,284.42,1072.4,284.42Z" transform="translate(-861.36 -284.42)"/><path d="M1052.58,336.91c-7.91,14.21-21,21-33.26,27.86-12.82,6.46-27.05,11.8-45.59,16.86-9.78,2.33-29.16,9.26-47.45,26.16a138.23,138.23,0,0,0-19.23,21.6,62.14,62.14,0,0,0-20.36,24.75,113.75,113.75,0,0,1,9.2-19.08,137.69,137.69,0,0,1,26.16-31.94c19-17.67,40-25.19,50.05-27.54a361.78,361.78,0,0,0,45.28-15C1029.83,354.8,1043.08,349.82,1052.58,336.91Z" transform="translate(-861.36 -284.42)"/><path d="M994.11,414.17a248.1,248.1,0,0,0-31.92,5.3c-1.52.37-3.1.77-4.73,1.2-14.19,3.73-31.85,9.73-46.92,21A83.28,83.28,0,0,0,898,453.14a66.2,66.2,0,0,0-6.59,9.6c-.39.71-.75,1.45-1,2.15l0,.1.88.23.09,0-.11,0-.25-.06-.62-.15-.15.37,0,.07c1.07.29-5.82,7.71-7.47,10.51l1.42-12.21.07-.31c-.11,0-.11,0,0,0h0l.32-1.39a50.1,50.1,0,0,1,1.44-5.48c.24-.79.52-1.6.8-2.41a62.14,62.14,0,0,1,20.36-24.75c-2,2.84-3.94,5.8-5.72,8.87-1.09,1.83-2.13,3.71-3.12,5.61,19.61-18.69,44.76-26.08,62.54-30.5,1.92-.45,3.78-.85,5.57-1.22a19,19,0,0,1,1.54,1.93l14.44-3-.75-.16q6.21.23,12,.82C996.83,412.05,996.39,413,994.11,414.17Z" transform="translate(-861.36 -284.42)"/><path d="M882.51,477l.12-1C882.24,476.63,882.14,477,882.51,477Z" transform="translate(-861.36 -284.42)"/><path d="M977.62,410,954,404.91A22.41,22.41,0,0,1,965.21,411c2.69-.15,5.45-.23,8.25-.25Z" transform="translate(-861.36 -284.42)"/><path d="M973.46,410.75c-2.24.41-4.62.87-7.14,1.4-.32-.36-.69-.74-1.11-1.15C967.9,410.85,970.66,410.77,973.46,410.75Z" transform="translate(-861.36 -284.42)"/><path d="M974.48,410.74c2.41,0,4.75.06,7.07.15l-3.93-.86-4.16.72Z" transform="translate(-861.36 -284.42)"/><path d="M973.46,410.75c-2.24.41-4.62.87-7.14,1.4a19,19,0,0,1,1.54,1.93l14.44-3-.75-.16c-2.32-.09-4.66-.15-7.07-.15Z" transform="translate(-861.36 -284.42)"/><path d="M1027.82,400.28l-41.88-8.35c6.91,1.36,26.16,8.1,34.63,11.12,1.44-.47,2.91-1,4.42-1.55C1025.93,401.13,1026.87,400.72,1027.82,400.28Z" transform="translate(-861.36 -284.42)"/><path d="M1034.06,401.52l-6.24-1.24c-1,.44-1.89.85-2.83,1.22-1.51.57-3,1.08-4.42,1.55l4.09,1.47Z" transform="translate(-861.36 -284.42)"/><path d="M1029,377.68c4.91-.94,19.24-.59,23.94-.44.81-1.45,1.58-2.95,2.29-4.49Z" transform="translate(-861.36 -284.42)"/><path d="M1060.74,371.71l-5.51,1c-.71,1.54-1.48,3-2.29,4.49l1.51.05Z" transform="translate(-861.36 -284.42)"/><path d="M1017.51,352l14.84-15c-1.94,1-3.87,1.9-5.76,2.68C1023.56,344.31,1019.71,349.83,1017.51,352Z" transform="translate(-861.36 -284.42)"/><path d="M1031,332.92s-2,3.09-4.45,6.84c1.89-.78,3.82-1.67,5.76-2.68l6.68-6.72Z" transform="translate(-861.36 -284.42)"/><path d="M967.5,368.93l13.25-13.37q-2.6,1.2-5.07,2.43C972.82,362.23,969.49,366.93,967.5,368.93Z" transform="translate(-861.36 -284.42)"/><path d="M981,349.81s-2.42,3.85-5.34,8.18q2.48-1.23,5.07-2.43l8.25-8.32Z" transform="translate(-861.36 -284.42)"/><path d="M1054.53,341.89c-5.06,8.19-27.76,30.32-69.21,40.86-44,11.18-54.94,28.93-54.94,28.93,33.62-18.84,58.9-8.89,68.86-12.8,0,0-4.38-2.07-22.84-7.81a56.08,56.08,0,0,1,15.25-1.27c6,.53,23.92.94,31.17.39s21.1-7.71,19.19-7.64-26.1-3.54-26.1-3.54.56-.91,11.88-4,22.53-4.94,26-14.72S1059.59,333.7,1054.53,341.89Z" transform="translate(-861.36 -284.42)"/><path d="M989.7,356.29s22.18-6.42,28.18-9c0,0-4.22,6.82-10.77,10.32-21.61,11.52-31.72,13.72-34.1,13.51Z" transform="translate(-861.36 -284.42)"/><path d="M1033.65,341.06l-8.91,8.32s14.09-4.5,27-20.38S1045.64,335.89,1033.65,341.06Z" transform="translate(-861.36 -284.42)"/></svg>